<svg xmlns="http://www.w3.org/2000/svg" viewBox="0 0 120 80" width="120" height="80">
  <defs>
    <linearGradient id="orcaGradient" x1="0%" y1="0%" x2="100%" y2="100%">
      <stop offset="0%" style="stop-color:#0891b2;stop-opacity:1" />
      <stop offset="50%" style="stop-color:#06b6d4;stop-opacity:1" />
      <stop offset="100%" style="stop-color:#0ea5e9;stop-opacity:1" />
    </linearGradient>
    
    <linearGradient id="wGradient" x1="0%" y1="0%" x2="100%" y2="100%">
      <stop offset="0%" style="stop-color:#f8fafc;stop-opacity:1" />
      <stop offset="100%" style="stop-color:#e2e8f0;stop-opacity:1" />
    </linearGradient>
    
    <!-- Glow effect -->
    <filter id="glow">
      <feGaussianBlur stdDeviation="2" result="coloredBlur"/>
      <feMerge> 
        <feMergeNode in="coloredBlur"/>
        <feMergeNode in="SourceGraphic"/>
      </feMerge>
    </filter>
  </defs>
  
  <!-- Orca outline with integrated W shape -->
  <g transform="translate(10, 15)">
    <!-- Main Orca body forming W shape -->
    <path d="M20 35 
             C15 25, 25 15, 35 20
             L45 35
             C50 25, 60 25, 65 35
             L75 20
             C85 15, 95 25, 90 35
             L85 45
             C90 50, 85 55, 75 50
             L65 40
             C60 50, 50 50, 45 40
             L35 50
             C25 55, 20 50, 25 45
             Z" 
          fill="none" 
          stroke="url(#orcaGradient)" 
          stroke-width="3" 
          stroke-linecap="round" 
          stroke-linejoin="round"
          filter="url(#glow)">
      <!-- Subtle breathing animation -->
      <animate attributeName="stroke-width" values="3;3.5;3" dur="4s" repeatCount="indefinite"/>
    </path>
    
    <!-- Orca head with distinctive features -->
    <circle cx="20" cy="30" r="8" fill="none" stroke="url(#orcaGradient)" stroke-width="2.5"/>
    
    <!-- Orca eye -->
    <circle cx="18" cy="28" r="2" fill="url(#orcaGradient)">
      <animate attributeName="opacity" values="1;0.7;1" dur="3s" repeatCount="indefinite"/>
    </circle>
    
    <!-- Distinctive W pattern in the body -->
    <path d="M30 32 L40 42 L50 32 L60 42 L70 32" 
          fill="none" 
          stroke="url(#wGradient)" 
          stroke-width="2" 
          stroke-linecap="round"
          opacity="0.8">
      <!-- Flowing animation -->
      <animate attributeName="stroke-dasharray" values="0,100;20,80;0,100" dur="3s" repeatCount="indefinite"/>
    </path>
    
    <!-- Dorsal fin -->
    <path d="M55 15 C60 10, 65 10, 65 18 C62 20, 58 20, 55 15 Z" 
          fill="none" 
          stroke="url(#orcaGradient)" 
          stroke-width="2"/>
    
    <!-- Tail flukes -->
    <path d="M85 35 C90 30, 95 30, 100 35 C95 40, 90 40, 85 35 Z" 
          fill="none" 
          stroke="url(#orcaGradient)" 
          stroke-width="2"/>
    <path d="M85 35 C90 40, 95 40, 100 45 C95 50, 90 50, 85 45 Z" 
          fill="none" 
          stroke="url(#orcaGradient)" 
          stroke-width="2"/>
    
    <!-- Pectoral fins -->
    <ellipse cx="35" cy="45" rx="8" ry="3" 
             fill="none" 
             stroke="url(#orcaGradient)" 
             stroke-width="1.5" 
             transform="rotate(20 35 45)"/>
    <ellipse cx="65" cy="45" rx="8" ry="3" 
             fill="none" 
             stroke="url(#orcaGradient)" 
             stroke-width="1.5" 
             transform="rotate(-20 65 45)"/>
  </g>
  
  <!-- Water ripple effects -->
  <g opacity="0.4">
    <circle cx="30" cy="60" r="15" fill="none" stroke="#06b6d4" stroke-width="1" opacity="0.6">
      <animate attributeName="r" values="15;25;15" dur="4s" repeatCount="indefinite"/>
      <animate attributeName="opacity" values="0.6;0.2;0.6" dur="4s" repeatCount="indefinite"/>
    </circle>
    <circle cx="70" cy="60" r="12" fill="none" stroke="#0ea5e9" stroke-width="1" opacity="0.5">
      <animate attributeName="r" values="12;20;12" dur="3s" repeatCount="indefinite"/>
      <animate attributeName="opacity" values="0.5;0.1;0.5" dur="3s" repeatCount="indefinite"/>
    </circle>
  </g>
</svg>