<svg xmlns="http://www.w3.org/2000/svg" viewBox="0 0 64 64" width="64" height="64">
  <defs>
    <radialGradient id="oceanBg" cx="50%" cy="30%" r="80%">
      <stop offset="0%" style="stop-color:#06b6d4;stop-opacity:1" />
      <stop offset="70%" style="stop-color:#1e40af;stop-opacity:1" />
      <stop offset="100%" style="stop-color:#1e3a8a;stop-opacity:1" />
    </radialGradient>
    
    <linearGradient id="orcaBody" x1="0%" y1="0%" x2="100%" y2="100%">
      <stop offset="0%" style="stop-color:#374151;stop-opacity:1" />
      <stop offset="100%" style="stop-color:#111827;stop-opacity:1" />
    </linearGradient>
  </defs>
  
  <!-- Ocean background -->
  <circle cx="32" cy="32" r="32" fill="url(#oceanBg)"/>
  
  <!-- Simplified Orca silhouette -->
  <g transform="translate(8, 16)">
    <!-- Main body -->
    <ellipse cx="24" cy="16" rx="20" ry="8" fill="url(#orcaBody)"/>
    
    <!-- Head -->
    <ellipse cx="10" cy="14" rx="8" ry="6" fill="url(#orcaBody)"/>
    
    <!-- White patch -->
    <ellipse cx="14" cy="12" rx="3" ry="2" fill="#f8fafc"/>
    <ellipse cx="32" cy="17" rx="4" ry="2.5" fill="#f8fafc"/>
    
    <!-- Dorsal fin -->
    <path d="M24 8 L28 2 L32 8 Z" fill="url(#orcaBody)"/>
    
    <!-- Tail -->
    <path d="M42 14 Q48 10 52 16 Q48 22 42 18 Z" fill="url(#orcaBody)"/>
    
    <!-- Eye -->
    <circle cx="12" cy="12" r="1.5" fill="#f8fafc"/>
    <circle cx="12.5" cy="11.5" r="0.6" fill="#111827"/>
  </g>
  
  <!-- Subtle wave effect -->
  <path d="M4 48 Q16 44 32 48 T60 48" stroke="#06b6d4" stroke-width="2" fill="none" opacity="0.4">
    <animate attributeName="d" values="M4 48 Q16 44 32 48 T60 48;M4 50 Q16 46 32 50 T60 50;M4 48 Q16 44 32 48 T60 48" dur="3s" repeatCount="indefinite"/>
  </path>
</svg>