<?xml version="1.0" encoding="UTF-8" standalone="no"?>
<svg width="500" height="380" viewBox="0 0 500 380" xmlns="http://www.w3.org/2000/svg">
  <!-- Styles and Gradients -->
  <defs>
    <linearGradient id="headerGradient" x1="0%" y1="0%" x2="100%" y2="0%">
      <stop offset="0%" stop-color="#3498db" stop-opacity="0.8"/>
      <stop offset="100%" stop-color="#2980b9" stop-opacity="0.9"/>
    </linearGradient>
    <linearGradient id="layerGradient1" x1="0%" y1="0%" x2="100%" y2="0%">
      <stop offset="0%" stop-color="#3498db" stop-opacity="0.7"/>
      <stop offset="100%" stop-color="#2980b9" stop-opacity="0.8"/>
    </linearGradient>
    <linearGradient id="layerGradient2" x1="0%" y1="0%" x2="100%" y2="0%">
      <stop offset="0%" stop-color="#2980b9" stop-opacity="0.7"/>
      <stop offset="100%" stop-color="#1f6da8" stop-opacity="0.8"/>
    </linearGradient>
    <linearGradient id="layerGradient3" x1="0%" y1="0%" x2="100%" y2="0%">
      <stop offset="0%" stop-color="#216694" stop-opacity="0.7"/>
      <stop offset="100%" stop-color="#1a5b88" stop-opacity="0.8"/>
    </linearGradient>
    <linearGradient id="layerGradient4" x1="0%" y1="0%" x2="100%" y2="0%">
      <stop offset="0%" stop-color="#195580" stop-opacity="0.7"/>
      <stop offset="100%" stop-color="#144875" stop-opacity="0.8"/>
    </linearGradient>
    <linearGradient id="layerGradient5" x1="0%" y1="0%" x2="100%" y2="0%">
      <stop offset="0%" stop-color="#123e6a" stop-opacity="0.7"/>
      <stop offset="100%" stop-color="#0d325c" stop-opacity="0.8"/>
    </linearGradient>
    <filter id="dropShadow" x="-20%" y="-20%" width="140%" height="140%">
      <feGaussianBlur in="SourceAlpha" stdDeviation="2"/>
      <feOffset dx="1" dy="1" result="offsetblur"/>
      <feComponentTransfer>
        <feFuncA type="linear" slope="0.2"/>
      </feComponentTransfer>
      <feMerge>
        <feMergeNode/>
        <feMergeNode in="SourceGraphic"/>
      </feMerge>
    </filter>
  </defs>

  <!-- Background -->
  <rect width="500" height="380" fill="#f8f9fa" rx="10" ry="10"/>

  <!-- Title -->
  <text x="250" y="35" font-family="'SF Pro Display', Arial, sans-serif" font-size="20" font-weight="600" text-anchor="middle" fill="#2c3e50">EntityDB Architecture</text>

  <!-- Layer 1: RESTful API -->
  <g transform="translate(100, 60)">
    <rect width="300" height="40" rx="4" ry="4" fill="url(#headerGradient)" filter="url(#dropShadow)"/>
    <text x="150" y="25" font-family="'SF Pro Display', Arial, sans-serif" font-size="16" font-weight="500" text-anchor="middle" fill="white">RESTful API Layer</text>
  </g>
  
  <!-- Arrow down -->
  <path d="M250,100 L250,120" stroke="#95a5a6" stroke-width="2" fill="none" stroke-dasharray="2,2"/>
  <polygon points="250,125 246,115 254,115" fill="#95a5a6"/>

  <!-- Layer 2: Auth & RBAC -->
  <g transform="translate(100, 125)">
    <rect width="300" height="40" rx="4" ry="4" fill="url(#layerGradient1)" filter="url(#dropShadow)"/>
    <text x="150" y="25" font-family="'SF Pro Display', Arial, sans-serif" font-size="16" font-weight="500" text-anchor="middle" fill="white">Auth & RBAC Authorization</text>
  </g>

  <!-- Arrow down -->
  <path d="M250,165 L250,185" stroke="#95a5a6" stroke-width="2" fill="none" stroke-dasharray="2,2"/>
  <polygon points="250,190 246,180 254,180" fill="#95a5a6"/>

  <!-- Layer 3: Entity Model -->
  <g transform="translate(100, 190)">
    <rect width="300" height="40" rx="4" ry="4" fill="url(#layerGradient2)" filter="url(#dropShadow)"/>
    <text x="150" y="25" font-family="'SF Pro Display', Arial, sans-serif" font-size="16" font-weight="500" text-anchor="middle" fill="white">Entity Model & Relationships</text>
  </g>

  <!-- Arrow down -->
  <path d="M250,230 L250,250" stroke="#95a5a6" stroke-width="2" fill="none" stroke-dasharray="2,2"/>
  <polygon points="250,255 246,245 254,245" fill="#95a5a6"/>

  <!-- Layer 4: Temporal Repository -->
  <g transform="translate(100, 255)">
    <rect width="300" height="40" rx="4" ry="4" fill="url(#layerGradient3)" filter="url(#dropShadow)"/>
    <text x="150" y="25" font-family="'SF Pro Display', Arial, sans-serif" font-size="16" font-weight="500" text-anchor="middle" fill="white">Temporal Repository</text>
    
    <!-- Sublayer Components -->
    <g transform="translate(0, 40)">
      <rect width="96" height="20" rx="3" ry="3" fill="url(#layerGradient3)" fill-opacity="0.7"/>
      <text x="48" y="14" font-family="'SF Pro Display', Arial, sans-serif" font-size="12" text-anchor="middle" fill="white">B-tree</text>
      
      <rect x="102" width="96" height="20" rx="3" ry="3" fill="url(#layerGradient3)" fill-opacity="0.7"/>
      <text x="150" y="14" font-family="'SF Pro Display', Arial, sans-serif" font-size="12" text-anchor="middle" fill="white">Skip-list</text>
      
      <rect x="204" width="96" height="20" rx="3" ry="3" fill="url(#layerGradient3)" fill-opacity="0.7"/>
      <text x="252" y="14" font-family="'SF Pro Display', Arial, sans-serif" font-size="12" text-anchor="middle" fill="white">Bloom Filter</text>
    </g>
  </g>

  <!-- Arrow down -->
  <path d="M250,315 L250,325" stroke="#95a5a6" stroke-width="2" fill="none" stroke-dasharray="2,2"/>
  <polygon points="250,330 246,320 254,320" fill="#95a5a6"/>

  <!-- Layer 5: Storage -->
  <g transform="translate(100, 330)">
    <rect width="300" height="40" rx="4" ry="4" fill="url(#layerGradient5)" filter="url(#dropShadow)"/>
    <text x="150" y="25" font-family="'SF Pro Display', Arial, sans-serif" font-size="16" font-weight="500" text-anchor="middle" fill="white">Binary Storage (EBF) & Write-Ahead Log</text>
  </g>

  <!-- Key Components Labels -->
  <g transform="translate(415, 100)">
    <circle cx="8" cy="8" r="5" fill="#e74c3c"/>
    <text x="20" y="12" font-family="'SF Pro Display', Arial, sans-serif" font-size="11" fill="#34495e">Temporal</text>
  </g>
  <g transform="translate(415, 125)">
    <circle cx="8" cy="8" r="5" fill="#1abc9c"/>
    <text x="20" y="12" font-family="'SF Pro Display', Arial, sans-serif" font-size="11" fill="#34495e">RBAC</text>
  </g>
  <g transform="translate(415, 150)">
    <circle cx="8" cy="8" r="5" fill="#f39c12"/>
    <text x="20" y="12" font-family="'SF Pro Display', Arial, sans-serif" font-size="11" fill="#34495e">Chunking</text>
  </g>
  <g transform="translate(415, 175)">
    <circle cx="8" cy="8" r="5" fill="#9b59b6"/>
    <text x="20" y="12" font-family="'SF Pro Display', Arial, sans-serif" font-size="11" fill="#34495e">Transactions</text>
  </g>
</svg>