<?xml version="1.0" encoding="iso-8859-1"?>
<!-- Worca Logo - Dark Theme (Gray) -->
<svg height="200px" width="200px" version="1.1" xmlns="http://www.w3.org/2000/svg" xmlns:xlink="http://www.w3.org/1999/xlink" 
     viewBox="0 0 200 200" xml:space="preserve">
<defs>
    <!-- Dark theme gray gradients -->
    <linearGradient id="darkOceanGradient" x1="0%" y1="0%" x2="100%" y2="100%">
        <stop offset="0%" style="stop-color:#6b7280;stop-opacity:1" />
        <stop offset="25%" style="stop-color:#9ca3af;stop-opacity:1" />
        <stop offset="50%" style="stop-color:#d1d5db;stop-opacity:1" />
        <stop offset="75%" style="stop-color:#e5e7eb;stop-opacity:1" />
        <stop offset="100%" style="stop-color:#f3f4f6;stop-opacity:1" />
    </linearGradient>
    
    <linearGradient id="darkDeepOceanGradient" x1="0%" y1="0%" x2="100%" y2="100%">
        <stop offset="0%" style="stop-color:#374151;stop-opacity:1" />
        <stop offset="50%" style="stop-color:#4b5563;stop-opacity:1" />
        <stop offset="100%" style="stop-color:#6b7280;stop-opacity:1" />
    </linearGradient>
</defs>

<g transform="translate(0, 50) scale(0.5, 0.5)">
    <g>
        <animateTransform attributeName="transform" type="scale" 
                          values="1;1.03;1" dur="4s" repeatCount="indefinite"/>
        
        <path style="fill:url(#darkDeepOceanGradient);" d="M180,240L180,240c-22.092,0-40,17.908-40,40l0,0c0,22.092,17.908,40,40,40l0,0"/>
        <path style="fill:url(#darkOceanGradient);" d="M190,80H51c-28.167,0-51,22.834-51,51v98c0,28.167,22.833,51,51,51h139V80z"/>
        <path style="fill:url(#darkDeepOceanGradient);" d="M400,150c0,0-15.714,0-31.428,0c-7.857,0-23.572,7.857-23.572,15.715
            c0-7.858-15.715-15.715-23.572-15.715c-15.714,0-31.428,0-31.428,0c0,19.638,16.367,39.262,40,45.27V205c0,19.331-15.67,35-35,35
            s-35-15.669-35-35v-74c0-28.166-22.834-51-51-51h-29v200h129c28.167,0,51-22.833,51-51v-33.73C383.633,189.262,400,169.638,400,150z"/>
        <ellipse style="fill:#1f2937;opacity:0.95;" cx="100" cy="195" rx="50" ry="35"/>
        <circle style="fill:#f1f5f9;" cx="100" cy="200.001" r="10">
            <animate attributeName="r" values="10;8;10" dur="3s" repeatCount="indefinite"/>
        </circle>
    </g>
</g>
</svg>